<svg xmlns="http://www.w3.org/2000/svg" fill="none" viewBox="0 0 138 43" class="h-10 w-32 cursor-pointer"><g clip-path="url(#android_download_svg__a)"><path fill="#fff" d="M136.896 37.856c0 1.067-.411 2.09-1.144 2.845a3.861 3.861 0 0 1-2.765 1.18H4.831a3.82 3.82 0 0 1-1.5-.304 3.908 3.908 0 0 1-1.27-.873 4.035 4.035 0 0 1-.85-1.306 4.126 4.126 0 0 1-.299-1.542V5.779A4.09 4.09 0 0 1 2.06 2.93a3.864 3.864 0 0 1 2.77-1.18h128.157c1.038 0 2.033.424 2.767 1.179a4.082 4.082 0 0 1 1.147 2.847V37.85l-.005.005Z"/><path fill="#A6A5A5" d="M132.986 42.815H4.831a4.763 4.763 0 0 1-3.413-1.452A5.041 5.041 0 0 1 0 37.856V5.779A5.046 5.046 0 0 1 1.418 2.27 4.768 4.768 0 0 1 4.83.815h128.155a4.766 4.766 0 0 1 3.41 1.457 5.042 5.042 0 0 1 1.416 3.507v32.077a5.035 5.035 0 0 1-1.415 3.507 4.758 4.758 0 0 1-3.411 1.452Z"/><path fill="#010101" d="M136.896 37.856c0 1.067-.411 2.09-1.144 2.845a3.861 3.861 0 0 1-2.765 1.18H4.831a3.82 3.82 0 0 1-1.5-.304 3.908 3.908 0 0 1-1.27-.873 4.035 4.035 0 0 1-.85-1.306 4.126 4.126 0 0 1-.299-1.542V5.779A4.09 4.09 0 0 1 2.06 2.93a3.864 3.864 0 0 1 2.77-1.18h128.157c1.038 0 2.033.424 2.767 1.179a4.082 4.082 0 0 1 1.147 2.847V37.85l-.005.005Z"/><path fill="#fff" d="M132.986.815H64.34l26.888 42h41.758a4.762 4.762 0 0 0 3.412-1.452 5.038 5.038 0 0 0 1.418-3.507V5.779a5.046 5.046 0 0 0-1.417-3.509 4.77 4.77 0 0 0-3.413-1.455Z" opacity="0.1"/><path fill="#fff" d="M48.697 13.511a2.87 2.87 0 0 1-.147 1.1c-.12.353-.307.678-.551.955a3.103 3.103 0 0 1-1.295.83 3.031 3.031 0 0 1-1.523.098 3.075 3.075 0 0 1-1.386-.659 3.197 3.197 0 0 1-.915-1.256 3.285 3.285 0 0 1 .297-3.03c.29-.44.681-.798 1.14-1.043.458-.246.968-.37 1.485-.362.418.004.83.109 1.2.307.353.154.66.402.89.718l-.498.512a1.875 1.875 0 0 0-.714-.563 1.822 1.822 0 0 0-.887-.155 1.944 1.944 0 0 0-.879.17 1.997 1.997 0 0 0-.718.548 2.516 2.516 0 0 0-.698 1.746c0 .654.25 1.28.698 1.745.435.423 1 .677 1.597.718.316.015.632-.041.926-.164.293-.124.557-.31.773-.55.16-.16.286-.35.371-.562.086-.212.129-.439.127-.668h-2.188v-.823h2.895v.411-.023Zm4.577-2.566h-2.669v1.944h2.496v.719h-2.495v1.948h2.668v.82h-3.491v-6.15h3.491v.719Zm3.296 5.44h-.8v-5.44h-1.695v-.719h4.19v.719H56.57v5.44Zm4.59 0v-6.159h.801v6.159h-.8Zm4.195 0h-.8v-5.44H62.86v-.719h4.092v.719h-1.668v5.44h.071Zm9.483-.82a3.046 3.046 0 0 1-3.93.438 3.195 3.195 0 0 1-1.265-1.723 3.288 3.288 0 0 1 .085-2.158 3.174 3.174 0 0 1 1.398-1.61 3.038 3.038 0 0 1 2.075-.333c.708.14 1.347.527 1.808 1.098.46.57.715 1.287.719 2.029.014.418-.056.835-.207 1.224-.151.39-.379.742-.67 1.036h-.013Zm-3.772-.512c.423.441.995.699 1.597.718a1.94 1.94 0 0 0 .88-.17c.276-.124.521-.311.717-.548a2.517 2.517 0 0 0 .698-1.748 2.168 2.168 0 0 0-.15-.956 2.114 2.114 0 0 0-.548-.787 2.318 2.318 0 0 0-1.597-.718 1.94 1.94 0 0 0-.879.17 1.992 1.992 0 0 0-.718.548 2.507 2.507 0 0 0-.698 1.744c-.023.327.029.655.15.958.12.303.309.573.548.79Zm5.783 1.332v-6.159h.89l2.895 4.827v-4.827h.8v6.159h-.8l-3.114-5.033v5.033h-.671ZM69.358 24.084a4.099 4.099 0 0 0-1.657.311 4.194 4.194 0 0 0-1.405.955 4.333 4.333 0 0 0-.928 1.445 4.434 4.434 0 0 0-.302 1.705c-.005.58.104 1.157.318 1.694.214.538.53 1.026.93 1.437.399.41.874.736 1.396.956.523.22 1.083.332 1.648.328a4.097 4.097 0 0 0 1.657-.31 4.194 4.194 0 0 0 1.406-.954c.402-.413.717-.905.928-1.447a4.428 4.428 0 0 0 .301-1.704 4.37 4.37 0 0 0-.283-1.715 4.272 4.272 0 0 0-.927-1.456 4.132 4.132 0 0 0-1.415-.953 4.038 4.038 0 0 0-1.667-.292Zm0 6.982a2.574 2.574 0 0 1-1.719-.846 2.718 2.718 0 0 1-.697-1.823c0-.677.25-1.329.698-1.824a2.574 2.574 0 0 1 1.718-.846c1.299 0 2.397 1.03 2.397 2.672.016.338-.034.675-.147.993-.112.317-.285.609-.508.857a2.482 2.482 0 0 1-.791.589c-.3.14-.623.218-.951.228Zm-9.283-6.982a4.099 4.099 0 0 0-1.657.311 4.194 4.194 0 0 0-1.405.955 4.335 4.335 0 0 0-.928 1.445 4.434 4.434 0 0 0-.302 1.705c-.005.58.104 1.157.318 1.694.214.538.53 1.026.93 1.437.399.41.874.736 1.396.956.523.22 1.083.332 1.648.328a4.097 4.097 0 0 0 1.657-.31 4.193 4.193 0 0 0 1.407-.954c.4-.413.716-.905.928-1.447a4.43 4.43 0 0 0 .3-1.704 4.37 4.37 0 0 0-.283-1.715 4.272 4.272 0 0 0-.927-1.456 4.132 4.132 0 0 0-1.415-.953 4.038 4.038 0 0 0-1.667-.292Zm0 6.982a2.574 2.574 0 0 1-1.719-.846 2.719 2.719 0 0 1-.697-1.823c0-.677.25-1.329.697-1.824a2.574 2.574 0 0 1 1.719-.846c1.299 0 2.397 1.03 2.397 2.672.016.338-.034.675-.147.993-.112.317-.285.609-.508.857a2.481 2.481 0 0 1-.791.589 2.42 2.42 0 0 1-.951.228Zm-11.076-5.645v1.83h4.275a3.93 3.93 0 0 1-.996 2.36c-.43.445-.944.793-1.51 1.023a4.303 4.303 0 0 1-1.782.313 4.537 4.537 0 0 1-1.826-.364 4.644 4.644 0 0 1-1.541-1.07 4.798 4.798 0 0 1-1.01-1.608 4.903 4.903 0 0 1-.316-1.885c-.007-.64.11-1.276.343-1.87a4.855 4.855 0 0 1 1.017-1.588 4.702 4.702 0 0 1 1.533-1.064A4.593 4.593 0 0 1 49 21.124c1.22.01 2.392.485 3.292 1.332l1.299-1.332a6.293 6.293 0 0 0-4.493-1.83 6.496 6.496 0 0 0-4.658 1.985 6.875 6.875 0 0 0-1.93 4.791c0 1.797.695 3.52 1.93 4.791a6.496 6.496 0 0 0 4.658 1.985c1.997 0 3.394-.618 4.59-1.954a6.259 6.259 0 0 0 1.597-4.31c.021-.379-.012-.76-.097-1.13l-6.188-.032Zm45.312 1.436c-.396-1.025-1.397-2.773-3.59-2.773-2.192 0-4.002 1.748-4.002 4.416a4.406 4.406 0 0 0 .285 1.683c.204.536.51 1.025.9 1.436.392.412.859.74 1.375.962.516.222 1.07.336 1.63.334a4.006 4.006 0 0 0 1.993-.51 4.145 4.145 0 0 0 1.503-1.44l-1.397-1.029a2.464 2.464 0 0 1-.89.906c-.368.216-.785.33-1.21.33a2.121 2.121 0 0 1-1.25-.332 2.211 2.211 0 0 1-.844-1.005l5.689-2.466-.2-.512h.008Zm-5.782 1.437a2.537 2.537 0 0 1 .603-1.732 2.402 2.402 0 0 1 1.594-.835c.322-.01.64.07.921.23.282.162.515.398.676.685l-3.794 1.643v.009Zm-4.693 4.209h1.908v-12.81h-1.912l.004 12.81Zm-2.984-7.494a3.25 3.25 0 0 0-2.296-1.025 4.236 4.236 0 0 0-2.907 1.362 4.479 4.479 0 0 0-1.185 3.053 4.36 4.36 0 0 0 .294 1.635c.202.52.502.994.882 1.394.38.4.833.72 1.334.94.5.22 1.038.335 1.582.34.417.004.83-.087 1.209-.263.379-.177.716-.437.989-.761h.098v.617c0 1.643-.89 2.567-2.296 2.567a2.182 2.182 0 0 1-1.286-.427 2.283 2.283 0 0 1-.809-1.115l-1.596.719a4.201 4.201 0 0 0 1.519 1.87 4.028 4.028 0 0 0 2.27.696c2.198 0 4.003-1.336 4.003-4.515V24.29h-1.779v.719h-.026Zm-2.224 6.057a2.574 2.574 0 0 1-1.719-.846 2.719 2.719 0 0 1-.697-1.823c0-.677.249-1.329.697-1.824a2.574 2.574 0 0 1 1.719-.846c1.298 0 2.295 1.13 2.295 2.672 0 1.542-.961 2.667-2.295 2.667Zm24.357-11.396h-4.493v12.81h1.931v-4.8h2.597c2.095 0 4.093-1.541 4.093-4.003 0-2.461-2.02-4.008-4.115-4.008h-.013Zm.098 6.162h-2.66v-4.415h2.669a2.16 2.16 0 0 1 1.519.623c.41.402.653.95.678 1.532a2.386 2.386 0 0 1-.668 1.573 2.257 2.257 0 0 1-1.529.687h-.009Zm11.48-1.83c-1.397 0-2.798.618-3.296 1.95l1.699.717c.168-.302.417-.55.718-.711.3-.162.639-.233.977-.203 1.001 0 1.899.617 1.997 1.642v.105a3.864 3.864 0 0 0-1.895-.512c-1.779 0-3.594 1.025-3.594 2.873 0 1.743 1.495 2.873 3.092 2.873a2.74 2.74 0 0 0 1.35-.302 2.828 2.828 0 0 0 1.047-.929h.098v1.025h1.779v-4.955c-.196-2.255-1.895-3.591-4.003-3.591l.031.018Zm-.2 7.082c-.601 0-1.499-.306-1.499-1.13 0-1.024 1.098-1.33 1.997-1.33a3.846 3.846 0 0 1 1.699.406 2.411 2.411 0 0 1-.738 1.42c-.398.37-.909.588-1.446.616l-.013.018Zm10.479-6.775-2.081 5.508h-.098l-2.193-5.545h-1.997l3.3 7.833-1.899 4.31h1.899l5.089-12.115-2.02.009Zm-16.769 8.235h1.9v-12.81h-1.9v12.81Z"/><path fill="url(#android_download_svg__b)" d="M14.833 9.339c-.31.407-.454.922-.4 1.436v22.702a2.067 2.067 0 0 0 .498 1.437l.102.105 12.375-12.732v-.206L14.833 9.339Z"/><path fill="url(#android_download_svg__c)" d="m31.403 26.587-4.092-4.209v-.31l4.092-4.21.098.105 4.892 2.873c1.397.824 1.397 2.155 0 2.979l-4.99 2.772Z"/><path fill="url(#android_download_svg__d)" d="m31.5 26.482-4.19-4.31-12.454 12.834c.498.512 1.196.512 2.095.1l14.571-8.624"/><path fill="url(#android_download_svg__e)" d="M31.5 17.858 16.93 9.34c-.89-.512-1.597-.412-2.095.1l12.454 12.733 4.19-4.314h.023Z"/></g><defs><linearGradient id="android_download_svg__b" x1="20.922" x2="20.922" y1="9.266" y2="34.813" gradientUnits="userSpaceOnUse"><stop stop-color="#267CAF"/><stop offset="0.29" stop-color="#4A92B4"/><stop offset="0.77" stop-color="#79BCBA"/><stop offset="1" stop-color="#88CEBC"/></linearGradient><linearGradient id="android_download_svg__c" x1="33.769" x2="30.594" y1="19.089" y2="26.068" gradientUnits="userSpaceOnUse"><stop stop-color="#F48879"/><stop offset="0.12" stop-color="#F5907A"/><stop offset="0.71" stop-color="#FBB777"/><stop offset="1" stop-color="#FDC874"/></linearGradient><linearGradient id="android_download_svg__d" x1="29.263" x2="15.332" y1="24.446" y2="35.399" gradientUnits="userSpaceOnUse"><stop stop-color="#EB413D"/><stop offset="0.17" stop-color="#D94452"/><stop offset="0.57" stop-color="#AF487A"/><stop offset="0.86" stop-color="#954B92"/><stop offset="1" stop-color="#894A9C"/></linearGradient><linearGradient id="android_download_svg__e" x1="16.6" x2="29.905" y1="9.957" y2="19.834" gradientUnits="userSpaceOnUse"><stop stop-color="#54C0AC"/><stop offset="1" stop-color="#DDE79A"/></linearGradient><clipPath id="android_download_svg__a"><path fill="#fff" d="M0 .815h137.812v42H0z"/></clipPath></defs></svg>