<svg xmlns="http://www.w3.org/2000/svg" fill="none" viewBox="0 0 140 43" class="h-10 w-32 cursor-pointer"><g clip-path="url(#ios_download_svg__a)"><path fill="#fff" d="M138.829 37.856a4.065 4.065 0 0 1-1.157 2.847 3.914 3.914 0 0 1-2.794 1.179H5.502c-.52 0-1.035-.103-1.515-.305a3.951 3.951 0 0 1-1.284-.872 4.035 4.035 0 0 1-.86-1.307 4.097 4.097 0 0 1-.302-1.542V5.779a4.074 4.074 0 0 1 1.162-2.85 3.924 3.924 0 0 1 2.799-1.18h129.371c1.048 0 2.054.424 2.795 1.179a4.065 4.065 0 0 1 1.157 2.847V37.85l.004.005Z"/><path fill="#A6A5A5" d="M134.873 42.815H5.502a4.831 4.831 0 0 1-3.446-1.452 5.016 5.016 0 0 1-1.431-3.507V5.779a5.017 5.017 0 0 1 1.43-3.51A4.831 4.831 0 0 1 5.502.815h129.371a4.836 4.836 0 0 1 3.446 1.455 5.02 5.02 0 0 1 1.431 3.51v32.076a5.023 5.023 0 0 1-1.433 3.506 4.835 4.835 0 0 1-3.444 1.453Z"/><path fill="#010101" d="M138.829 37.856a4.065 4.065 0 0 1-1.157 2.847 3.914 3.914 0 0 1-2.794 1.179H5.502c-.52 0-1.035-.103-1.515-.305a3.951 3.951 0 0 1-1.284-.872 4.035 4.035 0 0 1-.86-1.307 4.097 4.097 0 0 1-.302-1.542V5.779a4.074 4.074 0 0 1 1.162-2.85 3.924 3.924 0 0 1 2.799-1.18h129.371c1.048 0 2.054.424 2.795 1.179a4.065 4.065 0 0 1 1.157 2.847V37.85l.004.005Z"/><path fill="#fff" d="M134.873.815H65.578l27.14 42h42.155a4.834 4.834 0 0 0 3.446-1.452 5.015 5.015 0 0 0 1.431-3.507V5.779a5.02 5.02 0 0 0-1.431-3.509 4.836 4.836 0 0 0-3.446-1.455Z" opacity="0.1"/><path fill="#fff" d="M32.672 22.195c-.031-3.312 2.663-4.922 2.784-5A6.021 6.021 0 0 0 33.4 15.33a5.896 5.896 0 0 0-2.659-.73c-1.984-.214-3.906 1.209-4.94 1.209-1.032 0-2.586-1.19-4.26-1.153a6.203 6.203 0 0 0-3.05.932 6.354 6.354 0 0 0-2.209 2.334c-2.285 4.026-.579 9.951 1.608 13.209 1.095 1.596 2.375 3.376 4.041 3.312 1.666-.064 2.245-1.061 4.23-1.061 1.985 0 2.533 1.061 4.243 1.02 1.711-.041 2.865-1.601 3.92-3.203a13.373 13.373 0 0 0 1.797-3.72 5.674 5.674 0 0 1-2.504-2.113 5.834 5.834 0 0 1-.945-3.17Zm-3.228-9.736a5.94 5.94 0 0 0 1.315-4.204 5.803 5.803 0 0 0-3.785 2c-.817.965-1.54 2.552-1.347 4.044 1.432.11 2.9-.737 3.821-1.83l-.004-.01ZM56.417 33.047h-2.29L52.87 29.03h-4.36l-1.194 4.017H45.07l4.32-13.67h2.667l4.343 13.67h.017Zm-3.924-5.7-1.132-3.574c-.12-.36-.345-1.221-.678-2.57h-.05c-.134.582-.346 1.439-.637 2.57l-1.113 3.574h3.61Zm15.016.64c0 1.675-.45 3.002-1.347 3.972-.378.42-.839.754-1.353.978a3.857 3.857 0 0 1-1.629.32c-1.284 0-2.205-.457-2.766-1.372v5.17h-2.147V26.441c0-1.052-.026-2.132-.08-3.24h1.877l.12 1.565h.041a3.857 3.857 0 0 1 1.278-1.236 3.764 3.764 0 0 1 3.423-.218 3.831 3.831 0 0 1 1.42 1.065 5.509 5.509 0 0 1 1.145 3.633l.018-.023Zm-2.192.078a4.13 4.13 0 0 0-.637-2.375 2.213 2.213 0 0 0-.816-.727 2.166 2.166 0 0 0-1.057-.242 2.22 2.22 0 0 0-1.441.535c-.43.359-.73.855-.849 1.409-.057.218-.09.442-.099.668v1.647a2.68 2.68 0 0 0 .647 1.83c.21.242.47.433.761.561.291.128.606.19.923.18.368.015.735-.065 1.065-.232.33-.167.614-.416.825-.724a4.24 4.24 0 0 0 .678-2.52v-.01Zm13.323-.078c0 1.675-.449 3.002-1.347 3.972-.378.42-.84.754-1.355.978a3.865 3.865 0 0 1-1.63.32c-1.28 0-2.201-.457-2.763-1.372v5.17h-2.15V26.441c0-1.052-.027-2.132-.081-3.24h1.895l.117 1.565h.04a3.862 3.862 0 0 1 1.28-1.236 3.768 3.768 0 0 1 3.425-.218 3.837 3.837 0 0 1 1.42 1.065 5.533 5.533 0 0 1 1.145 3.633l.004-.023Zm-2.191.078a4.13 4.13 0 0 0-.642-2.375 2.213 2.213 0 0 0-.814-.726 2.166 2.166 0 0 0-1.054-.243 2.22 2.22 0 0 0-1.446.535c-.43.358-.729.855-.844 1.409a2.894 2.894 0 0 0-.099.668v1.647c-.02.67.21 1.324.642 1.83.211.242.472.434.763.562.292.128.608.19.925.18a2.17 2.17 0 0 0 1.065-.233c.33-.167.614-.416.826-.724.483-.746.72-1.628.678-2.52v-.01ZM91.083 29.2a3.72 3.72 0 0 1-.288 1.555 3.66 3.66 0 0 1-.906 1.286c-.871.796-2.093 1.199-3.655 1.199a6.309 6.309 0 0 1-3.476-.851l.498-1.83c.94.566 2.015.86 3.108.85a2.898 2.898 0 0 0 1.89-.558c.219-.177.394-.403.512-.662.117-.258.174-.54.166-.825a1.92 1.92 0 0 0-.579-1.377 5.08 5.08 0 0 0-1.85-1.057c-2.347-.89-3.522-2.196-3.525-3.916a3.525 3.525 0 0 1 .313-1.518 3.46 3.46 0 0 1 .93-1.227 4.878 4.878 0 0 1 3.297-1.075 6.452 6.452 0 0 1 3.049.65l-.544 1.784A5.267 5.267 0 0 0 87.446 21a2.602 2.602 0 0 0-1.796.567c-.172.155-.31.346-.403.56-.093.214-.14.446-.136.68-.005.257.049.51.155.743.107.232.264.437.46.598A7.104 7.104 0 0 0 87.68 25.2a6.6 6.6 0 0 1 2.546 1.66c.556.658.849 1.504.822 2.37l.036-.031Zm7.149-4.37H95.86v4.786c0 1.22.419 1.83 1.257 1.83.32.008.64-.026.952-.1l.063 1.66c-.54.181-1.107.263-1.675.243a2.516 2.516 0 0 1-1.08-.175 2.556 2.556 0 0 1-.91-.617c-.484-.54-.727-1.42-.727-2.64v-4.991h-1.41v-1.643h1.41v-1.802l2.11-.65v2.452h2.38v1.647Zm10.673 3.203a5.459 5.459 0 0 1-1.275 3.729c-.447.498-.996.89-1.608 1.15a4.472 4.472 0 0 1-1.935.35 4.272 4.272 0 0 1-1.856-.333 4.35 4.35 0 0 1-1.543-1.103 5.317 5.317 0 0 1-1.262-3.633 5.444 5.444 0 0 1 1.302-3.752c.448-.487.994-.87 1.601-1.122a4.462 4.462 0 0 1 1.915-.337c.64-.026 1.277.09 1.868.338a4.436 4.436 0 0 1 1.559 1.103c.847 1 1.289 2.29 1.234 3.61Zm-2.245.05a4.464 4.464 0 0 0-.575-2.328 2.142 2.142 0 0 0-.801-.867 2.09 2.09 0 0 0-1.129-.305 2.127 2.127 0 0 0-1.151.298c-.348.207-.633.51-.821.874a4.555 4.555 0 0 0-.579 2.37c-.022.814.178 1.619.579 2.324.189.357.469.656.811.864a2.174 2.174 0 0 0 2.263 0c.342-.208.622-.507.81-.864a4.498 4.498 0 0 0 .593-2.347v-.019Zm9.223-2.973c-.223-.04-.45-.06-.678-.06a1.999 1.999 0 0 0-.988.207 2.037 2.037 0 0 0-.767.667 3.345 3.345 0 0 0-.535 1.944v5.175h-2.151v-6.749c0-1.037-.021-2.072-.062-3.106h1.872l.081 1.885h.058a3.419 3.419 0 0 1 1.073-1.56c.45-.343.997-.527 1.559-.526.178-.001.357.011.534.036v2.091l.004-.005Zm9.614 2.534c.004.333-.021.665-.076.993h-6.462c-.013.42.063.838.226 1.225.162.386.405.732.713 1.012.599.477 1.346.72 2.106.687a7.066 7.066 0 0 0 2.613-.458l.337 1.519a7.953 7.953 0 0 1-3.247.613c-.65.033-1.3-.072-1.908-.309a4.701 4.701 0 0 1-1.626-1.064 5.005 5.005 0 0 1-.999-1.677 5.08 5.08 0 0 1-.285-1.941 5.72 5.72 0 0 1 1.195-3.711c.402-.517.918-.93 1.507-1.204a4.045 4.045 0 0 1 1.878-.379 3.536 3.536 0 0 1 1.774.374 3.614 3.614 0 0 1 1.37 1.209c.593.917.891 2 .853 3.097l.031.014Zm-2.061-.572a3.015 3.015 0 0 0-.413-1.683 1.902 1.902 0 0 0-.734-.7 1.855 1.855 0 0 0-.981-.215 2.014 2.014 0 0 0-.965.228 2.054 2.054 0 0 0-.746.664 3.318 3.318 0 0 0-.638 1.706h4.477ZM47.89 15.73a13.445 13.445 0 0 1-1.544-.082V9.042a11.557 11.557 0 0 1 1.796-.142c2.465 0 3.592 1.235 3.592 3.248.032 2.325-1.307 3.583-3.844 3.583Zm.364-5.984a4.542 4.542 0 0 0-.853.069v5.033c.237.023.476.032.714.027 1.616 0 2.537-.938 2.537-2.69-.018-1.583-.835-2.439-2.398-2.439Zm7.05 6.035c-1.388 0-2.29-1.057-2.29-2.494 0-1.436.92-2.562 2.37-2.562 1.348 0 2.29 1.007 2.29 2.485 0 1.477-.947 2.571-2.37 2.571Zm.04-4.269c-.763 0-1.252.728-1.252 1.743 0 1.016.502 1.725 1.243 1.725.741 0 1.244-.777 1.244-1.743 0-.965-.49-1.725-1.235-1.725Zm10.256-.686-1.495 4.845h-.965l-.62-2.104a17.251 17.251 0 0 1-.382-1.565c-.087.53-.214 1.054-.381 1.565L61.1 15.67h-.992l-1.392-4.845h1.086l.54 2.288c.125.549.233 1.066.322 1.555.081-.407.207-.915.391-1.546l.678-2.288h.862l.647 2.288c.153.549.283 1.084.382 1.592h.031a13.4 13.4 0 0 1 .323-1.592l.58-2.288 1.041-.009Zm5.474 4.845H70.02V12.89c0-.86-.323-1.29-.961-1.29a1.085 1.085 0 0 0-.773.368 1.127 1.127 0 0 0-.282.82v2.883h-1.055v-3.463c0-.426 0-.888-.04-1.373h.929l.049.746h.027a1.73 1.73 0 0 1 .642-.63 1.69 1.69 0 0 1 .867-.216c.997 0 1.652.777 1.652 2.045v2.9-.009Zm2.914 0h-1.055V8.603h1.05l.005 7.068Zm3.853.11c-1.387 0-2.29-1.057-2.29-2.494 0-1.436.898-2.562 2.371-2.562 1.37 0 2.29 1.007 2.29 2.485 0 1.477-.952 2.571-2.37 2.571Zm.04-4.269c-.763 0-1.252.728-1.252 1.743 0 1.016.503 1.725 1.244 1.725.74 0 1.239-.777 1.239-1.743 0-.965-.485-1.725-1.23-1.725Zm6.498 4.16-.076-.559h-.032a1.596 1.596 0 0 1-1.388.668 1.361 1.361 0 0 1-1.033-.39 1.411 1.411 0 0 1-.426-1.037c0-1.195 1.02-1.83 2.78-1.83v-.092c0-.636-.332-.956-.988-.956a2.214 2.214 0 0 0-1.24.357l-.215-.705a2.997 2.997 0 0 1 1.63-.42c1.244 0 1.873.667 1.873 2.003v1.784c-.009.387.014.775.067 1.158l-.952.018Zm-.148-2.417c-1.172 0-1.76.293-1.76.98a.695.695 0 0 0 .186.551.669.669 0 0 0 .537.204 1 1 0 0 0 .716-.276c.194-.184.31-.438.32-.708v-.75Zm6.165 2.416-.05-.778h-.03a1.618 1.618 0 0 1-.633.677 1.575 1.575 0 0 1-.894.211c-1.145 0-1.994-1.03-1.994-2.475 0-1.446.898-2.58 2.079-2.58.262-.028.527.02.764.136.238.116.44.297.583.522h.022V8.603H91.3v5.76c0 .457 0 .915.04 1.308h-.943Zm-.157-2.85a1.192 1.192 0 0 0-.293-.872 1.15 1.15 0 0 0-.82-.386c-.786 0-1.262.709-1.262 1.702 0 .992.494 1.647 1.239 1.647a1.172 1.172 0 0 0 .833-.4 1.218 1.218 0 0 0 .303-.886v-.805Zm7.764 2.96c-1.388 0-2.29-1.057-2.29-2.494 0-1.436.92-2.562 2.37-2.562 1.37 0 2.291 1.007 2.291 2.485 0 1.477-.952 2.571-2.371 2.571Zm.04-4.269c-.763 0-1.253.728-1.253 1.743 0 1.016.499 1.725 1.244 1.725.746 0 1.24-.777 1.24-1.743 0-.965-.485-1.725-1.23-1.725Zm8.011 4.16h-1.055v-2.783c0-.86-.323-1.29-.961-1.29a1.082 1.082 0 0 0-.773.369 1.127 1.127 0 0 0-.282.82v2.883h-1.06v-3.463c0-.426 0-.888-.036-1.373h.93l.049.746h.027c.155-.264.377-.482.642-.63.265-.15.564-.224.867-.216.997 0 1.652.777 1.652 2.04v2.896Zm7.113-4.04h-1.163v2.35c0 .6.202.916.615.916.151-.001.301-.018.449-.05l.031.814a2.257 2.257 0 0 1-.821.124c-.831 0-1.347-.458-1.347-1.698v-2.443h-.696v-.805h.696v-.888l1.037-.32v1.208h1.163v.805l.036-.014Zm5.595 4.04h-1.055v-2.746c0-.865-.324-1.304-.961-1.304a1.02 1.02 0 0 0-.779.331 1.057 1.057 0 0 0-.277.813v2.924h-1.059V8.603h1.059v2.914c.149-.25.36-.454.612-.592a1.58 1.58 0 0 1 .821-.195c1.006 0 1.621.796 1.621 2.063v2.883l.018-.005Zm5.73-2.165h-3.171a1.397 1.397 0 0 0 .425 1.07 1.332 1.332 0 0 0 1.075.362c.437.005.871-.072 1.28-.229l.166.75a3.944 3.944 0 0 1-1.594.298c-1.491 0-2.371-.956-2.371-2.443s.898-2.599 2.245-2.599c1.217 0 1.976.915 1.976 2.288a2.01 2.01 0 0 1-.036.49l.005.013Zm-.966-.768c0-.746-.373-1.277-1.046-1.277-.315.025-.61.17-.824.407a1.293 1.293 0 0 0-.335.87h2.205Z"/></g><defs><clipPath id="ios_download_svg__a"><path fill="#fff" d="M.625.815H139.75v42H.625z"/></clipPath></defs></svg>